<svg width="67" height="67" viewBox="0 0 67 67" fill="none" xmlns="http://www.w3.org/2000/svg">
<path d="M50 20.8C49.6 19.8 49.2 19.1 48.4 18.4C47.7 17.7 47 17.2 46 16.8C45.3 16.5 44.2 16.2 42.1 16.1C40.1 16 39.4 16 33.9 16C28.4 16 27.7 16 25.5 16.1C23.5 16.2 22.4 16.5 21.6 16.8C20.6 17.2 19.9 17.6 19.2 18.4C18.5 19.2 18 19.8 17.6 20.8C17.3 21.5 17 22.6 16.9 24.7C16.8 26.9 16.8 27.5 16.8 33.1C16.8 38.7 16.8 39.3 16.9 41.5C17 43.5 17.3 44.6 17.6 45.4C18 46.4 18.4 47.1 19.2 47.8C19.9 48.5 20.6 49 21.6 49.4C22.3 49.7 23.4 50 25.5 50.1C27.7 50.2 28.3 50.2 33.9 50.2C39.4 50.2 40.1 50.2 42.3 50.1C44.3 50 45.4 49.7 46.2 49.4C47.2 49 47.9 48.6 48.6 47.8C49.3 47.1 49.8 46.4 50.2 45.4C50.5 44.7 50.8 43.6 50.9 41.5C51 39.3 51 38.7 51 33.1C51 27.5 51 26.9 50.9 24.7C50.7 22.6 50.3 21.5 50 20.8ZM44.9 19.4C46.3 19.4 47.4 20.5 47.4 21.9C47.4 23.3 46.3 24.4 44.9 24.4C43.5 24.4 42.4 23.3 42.4 21.9C42.4 20.5 43.5 19.4 44.9 19.4ZM19.9 32.9C19.9 32.9 32.9 17.9 47.9 32.9C47.9 32.9 35.4 48.4 19.9 32.9Z" fill="#00009C"/>
<path d="M33.9 0.100006C15.7 0.100006 0.900002 14.9 0.900002 33.1C0.900002 51.3 15.7 66.1 33.9 66.1C52.1 66.1 66.9 51.3 66.9 33.1C66.9 14.9 52.1 0.100006 33.9 0.100006ZM54.5 41.6C54.4 43.8 54 45.3 53.5 46.6C53 48 52.3 49.1 51.1 50.3C49.9 51.5 48.8 52.2 47.4 52.7C46.1 53.2 44.6 53.6 42.4 53.7C40.2 53.8 39.5 53.8 33.8 53.8C28.2 53.8 27.5 53.8 25.2 53.7C23 53.6 21.5 53.2 20.2 52.7C18.8 52.2 17.7 51.5 16.5 50.3C15.3 49.1 14.6 48 14.1 46.6C13.6 45.3 13.2 43.8 13.1 41.6C13 39.4 13 38.7 13 33C13 27.4 13 26.7 13.1 24.4C13.2 22.2 13.6 20.7 14.1 19.4C14.6 18 15.3 16.9 16.5 15.7C17.7 14.5 18.8 13.8 20.2 13.3C21.5 12.8 23 12.4 25.2 12.3C27.4 12.2 28.1 12.2 33.8 12.2C39.4 12.2 40.1 12.2 42.4 12.3C44.6 12.4 46.1 12.8 47.4 13.3C48.8 13.8 49.9 14.5 51.1 15.7C52.3 16.9 53 18 53.5 19.4C54 20.7 54.4 22.2 54.5 24.4C54.6 26.6 54.6 27.3 54.6 33C54.6 38.7 54.6 39.4 54.5 41.6Z" fill="#00009C"/>
</svg>
