<svg width="67" height="67" viewBox="0 0 67 67" fill="none" xmlns="http://www.w3.org/2000/svg">
<path d="M33.9 0.100006C15.7 0.100006 0.899994 14.9 0.899994 33.1C0.899994 51.3 15.7 66.1 33.9 66.1C52.1 66.1 66.9 51.3 66.9 33.1C66.8 14.8 52.1 0.100006 33.9 0.100006ZM49.9 21C49.7 24 44.1 46.6 44.1 46.6C44.1 46.6 43.8 48 42.6 48C42.2 48 41.6 47.9 41 47.4C39.7 46.3 36.8 44.2 34.1 42.3C33.3 43 31.6 44.4 29.9 46.1C27.5 48.5 27.8 46.1 27.8 46.1L28.5 38.2C28.5 38.1 28.6 38.1 28.6 38.1C28.6 38.1 42.8 25.5 43.2 24.1C43.2 24 43.1 23.9 43 24C42 24.4 25.7 34.8 23.9 35.9C23.8 36 23.5 35.9 23.5 35.9L15.6 33.3C15.6 33.3 14.7 32.9 15 32C15.1 31.8 15.2 31.7 15.6 31.4C17.2 30.3 48 19.2 48 19.2C48 19.2 48.9 18.9 49.4 19.1C49.6 19.2 49.8 19.3 49.9 19.7C49.9 19.8 50 20.1 50 20.4C50 20.5 50 20.7 49.9 21Z" fill="#00009C"/>
</svg>
