<?xml version="1.0" standalone="no"?>
<!DOCTYPE svg PUBLIC "-//W3C//DTD SVG 20010904//EN"
 "http://www.w3.org/TR/2001/REC-SVG-20010904/DTD/svg10.dtd">
<svg version="1.0" xmlns="http://www.w3.org/2000/svg"
 width="1080.000000pt" height="1080.000000pt" viewBox="0 0 1080.000000 1080.000000"
 preserveAspectRatio="xMidYMid meet">
<metadata>
Created by potrace 1.14, written by Peter Selinger 2001-2017
</metadata>
<g transform="translate(0.000000,1080.000000) scale(0.100000,-0.100000)"
fill="#000000" stroke="none">
<path d="M4224 7202 c-118 -42 -210 -125 -267 -241 -30 -63 -32 -72 -32 -181
0 -110 1 -118 33 -183 39 -78 115 -161 187 -201 294 -163 655 48 655 385 0
173 -98 326 -259 402 -56 26 -78 31 -165 34 -79 3 -112 0 -152 -15z"/>
<path d="M2758 7104 c-40 -21 -50 -48 -49 -124 3 -196 86 -477 203 -684 240
-427 631 -716 1106 -818 92 -20 136 -23 317 -23 242 0 338 14 528 76 249 81
431 194 736 458 360 312 446 373 606 426 99 34 255 44 372 25 238 -38 478
-164 663 -350 193 -192 286 -376 346 -678 7 -36 51 -70 99 -78 24 -3 121 -4
217 -2 245 5 267 21 254 182 -37 489 -320 964 -744 1249 -119 80 -306 170
-428 206 -185 54 -337 74 -519 68 -186 -6 -299 -24 -445 -73 -220 -73 -441
-215 -715 -458 -225 -200 -358 -300 -485 -366 -280 -144 -567 -137 -885 21
-335 166 -580 473 -645 809 -16 82 -23 99 -50 123 l-30 27 -213 0 c-168 -1
-218 -4 -239 -16z"/>
<path d="M2781 5347 c-55 -19 -73 -54 -72 -131 2 -175 70 -425 168 -621 119
-238 296 -449 505 -603 502 -369 1191 -414 1748 -115 151 81 284 180 510 378
304 266 407 337 565 391 106 36 270 44 398 20 367 -69 697 -321 868 -661 56
-111 81 -190 115 -363 3 -13 17 -35 31 -48 26 -24 27 -24 244 -24 148 0 227 4
244 12 57 26 67 97 40 268 -55 334 -191 617 -423 879 -181 203 -482 395 -738
470 -185 54 -337 74 -519 68 -185 -6 -299 -24 -442 -72 -238 -80 -405 -188
-748 -485 -294 -256 -431 -346 -615 -406 -78 -26 -98 -28 -240 -28 -131 -1
-168 2 -238 22 -237 65 -443 189 -613 371 -144 153 -240 332 -274 511 -34 177
-30 174 -285 177 -135 2 -206 -1 -229 -10z"/>
<path d="M6412 4395 c-198 -44 -343 -226 -343 -429 0 -101 20 -167 72 -246 96
-143 269 -220 434 -192 257 42 425 293 361 539 -20 81 -44 127 -97 187 -108
122 -271 176 -427 141z"/>
</g>
</svg>
